<svg width="648.34624" height="272.15024" shape-rendering="geometricPrecision" aria-label="Bayes Institute horizontal logo" role="img" viewBox="152.85088 133.23288 648.34624 272.15024" xmlns="http://www.w3.org/2000/svg"><title>Bayes Institute horizontal logo</title><desc>Primary Burgundy Prime logo on a transparent canvas with standard clearspace.</desc><path d="m183.6289 159.7783c-1.3584 0.2749-1.6496 0.4172-2.5706 1.2565-0.6223 0.567-0.8402 0.8812-1.2449 1.795-0.4217 0.9522-0.4974 1.2611-0.5394 2.2002-0.0454 1.0162-0.0213 1.1513 0.3455 1.9375 0.5272 1.1297 1.0999 1.6852 2.4284 2.3555 1.0309 0.5201 1.2636 0.5828 3.25 0.8752l2.1396 0.3149 8.25-0.0763c4.5375-0.0419 22.5937-0.0198 40.125 0.0492 28.8425 0.1136 32.4042 0.1495 37.4375 0.3781 5.6244 0.2555 6.3838 0.3215 8.75 0.7607 0.7219 0.134 1.9031 0.3032 2.625 0.3759s1.9031 0.2971 2.625 0.4986c0.7219 0.2014 1.731 0.4307 2.2426 0.5093 0.5115 0.0787 1.3272 0.3004 1.8125 0.4927s1.2199 0.4179 1.6324 0.5013 1.0055 0.2807 1.3178 0.4385c0.3124 0.1578 0.903 0.3818 1.3125 0.4978 0.4096 0.116 1.026 0.3657 1.3697 0.5549 0.3437 0.1891 0.9171 0.4401 1.2742 0.5577 0.357 0.1177 0.7847 0.3205 0.9503 0.4507 0.1656 0.1303 0.6047 0.3563 0.9758 0.5022 0.3711 0.146 0.7591 0.3387 0.8622 0.4284s0.4406 0.2879 0.75 0.4405c0.5802 0.2862 1.053 0.5821 2.875 1.7993 3.0182 2.0164 5.6152 4.2452 7.8499 6.7369 1.6236 1.8104 2.1885 2.5384 3.4647 4.4655 3.4841 5.261 5.2232 10.8004 5.4007 17.2014 0.2467 8.9033-2.6072 17.6539-7.9451 24.3611-1.0455 1.3137-3.5324 3.8177-5.0827 5.1178-1.7854 1.4971-4.924 3.6436-6.375 4.3598-0.275 0.1357-0.7555 0.4056-1.0678 0.5998-0.3123 0.1941-0.8083 0.4377-1.102 0.5414-0.2938 0.1036-0.6971 0.3044-0.8961 0.4461-0.1991 0.1418-0.6875 0.3683-1.0855 0.5035s-0.9767 0.3813-1.2861 0.547c-0.3094 0.1656-0.9096 0.3906-1.3339 0.5-0.4242 0.1094-1.043 0.3382-1.375 0.5085s-1.0194 0.3958-1.5277 0.5012c-0.5082 0.1053-1.1832 0.3079-1.5 0.4502-0.3167 0.1424-1.279 0.3927-2.1384 0.5562-0.8594 0.1636-1.964 0.4075-2.4547 0.542-0.4907 0.1346-1.5594 0.3068-2.375 0.3827-5.4508 0.5073-10.9031 1.1751-11.4828 1.4063-0.3437 0.137-1.0221 0.4028-1.5075 0.5906-0.8482 0.3282-2.0259 1.0937-2.4406 1.5865-0.9454 1.1233-1.0345 2.0687-0.3343 3.5479 0.4802 1.0143 0.8718 1.479 1.9009 2.2561 1.1097 0.8378 1.672 0.9076 7.444 0.9244 4.4416 0.0128 5.107 0.0418 6.625 0.2881 0.9281 0.1507 2.3625 0.3349 3.1875 0.4094s2.1469 0.2973 2.9375 0.495c0.7906 0.1978 1.9156 0.4213 2.5 0.4967s1.5688 0.3029 2.1875 0.5056c0.6187 0.2026 1.5627 0.4518 2.0976 0.5537 0.5349 0.102 1.2943 0.3267 1.6875 0.4993 0.3932 0.1727 1.0958 0.3995 1.5613 0.5041s1.0807 0.3098 1.367 0.4558c0.2864 0.1461 0.9122 0.3741 1.3908 0.5068 0.4787 0.1326 1.101 0.373 1.383 0.5342 0.2821 0.1612 0.7378 0.3576 1.0128 0.4364 0.275 0.0789 0.8938 0.3375 1.375 0.5747s1.1281 0.5455 1.4375 0.6852c0.7648 0.3452 3.7975 1.9743 4.5365 2.437 3.8022 2.3804 6.051 4.1037 8.8586 6.7889 7.5003 7.1733 12.6094 16.6006 14.2389 26.2736 0.5275 3.1313 0.741 5.6508 0.7407 8.7388-4e-4 3.6137-0.3465 7.6988-1.0124 11.9487-0.3968 2.5331-1.9261 8.5826-2.414 9.5495-0.0903 0.179-0.2909 0.7193-0.4456 1.2005-0.4278 1.3301-2.7321 5.9358-3.815 7.625-2.5278 3.9431-4.9856 6.8666-8.6877 10.334-1.56 1.4611-3.8375 3.3456-5.186 4.291-0.3922 0.275-1.073 0.7531-1.5129 1.0625s-1.1685 0.7875-1.6192 1.0625-1.111 0.6878-1.4673 0.9174c-0.3564 0.2296-0.8457 0.516-1.0875 0.6366-0.2418 0.1205-1.1146 0.5858-1.9396 1.034-0.825 0.4483-1.6406 0.8583-1.8125 0.9112s-0.7251 0.3138-1.2294 0.5797c-0.5043 0.266-0.9979 0.4836-1.0968 0.4836-0.099 0-0.5583 0.1884-1.0207 0.4187-0.4623 0.2303-1.1147 0.486-1.4497 0.5682s-0.8772 0.2853-1.205 0.4514-0.9818 0.3984-1.4534 0.5163-1.1486 0.3425-1.5044 0.4992c-0.3559 0.1566-1.1152 0.3787-1.6875 0.4934-0.5724 0.1147-1.4028 0.3437-1.8455 0.509-0.4427 0.1652-1.2917 0.3791-1.8867 0.4754-0.5951 0.0962-1.611 0.3182-2.2577 0.4932-0.6466 0.1751-1.8788 0.4077-2.7382 0.5169s-2.2233 0.3342-3.0309 0.5-2.242 0.3623-3.1875 0.4367-2.6191 0.2215-3.7191 0.3269-2.8437 0.2709-3.875 0.3679c-2.3976 0.2255-14.1723 0.4635-17.6875 0.3575-4.1588-0.1254-63.8679-0.1603-66.6875-0.039-1.375 0.0592-2.9781 0.1661-3.5625 0.2376-1.1455 0.1402-3.2416 0.7693-3.7518 1.126-0.1729 0.1209-0.5667 0.6608-0.875 1.1997l-0.5607 0.9799v1.9388c0 1.9138 0.0047 1.9468 0.3634 2.5638 0.5975 1.0276 1.4194 1.797 2.1366 2.0001 2.9606 0.8386 3.4228 0.8479 46.0625 0.926 60.2538 0.1104 59.0875 0.1192 64.4375-0.4868 1.1687-0.1324 2.9687-0.2995 4-0.3714 2.4016-0.1672 2.8002-0.2161 4.6875-0.5745 0.8594-0.1631 2.2937-0.3846 3.1875-0.4921s2.1313-0.3325 2.75-0.4999c0.6187-0.1675 1.7156-0.3921 2.4375-0.4993 0.7219-0.1071 1.7344-0.3334 2.25-0.5029s1.4107-0.3972 1.9891-0.5061 1.394-0.3337 1.8125-0.4996 1.1787-0.3883 1.6893-0.4943c0.5107-0.1059 1.2419-0.3298 1.625-0.4975s1.0589-0.3956 1.5016-0.5066c0.4428-0.111 1.0298-0.3164 1.3045-0.4566 0.2748-0.1401 0.8911-0.3633 1.3697-0.496 0.4787-0.1326 1.101-0.3744 1.383-0.5374 0.2821-0.1629 0.8161-0.3848 1.1868-0.493s0.9051-0.3304 1.1875-0.4938 0.7208-0.3641 0.9742-0.446c0.5362-0.1733 4.8553-2.3477 6.2268-3.1348 0.5156-0.296 1.2469-0.7139 1.625-0.9288 1.2604-0.7163 4.9063-3.0766 5.75-3.7225 0.1719-0.1316 0.9568-0.7207 1.7444-1.3092 5.6986-4.2579 11.0123-9.6934 14.9469-15.2895 1.4974-2.1297 2.0451-2.986 3.359-5.2518 1.0335-1.782 3.5747-6.9304 3.5747-7.2421 0-0.0682 0.1456-0.449 0.3235-0.8463 0.4311-0.9625 1.2315-3.289 1.6891-4.9098 0.2039-0.7219 0.4787-1.65 0.6109-2.0625 0.1321-0.4125 0.3248-1.2081 0.4282-1.768 0.1034-0.5598 0.3286-1.6286 0.5005-2.375 1.0532-4.5744 1.1825-14.6599 0.2537-19.7945-0.3795-2.0983-1.0818-5.2406-1.3548-6.0625-0.1599-0.4812-0.363-1.1844-0.4512-1.5625-0.0883-0.3781-0.2836-0.9688-0.434-1.3125s-0.3997-1.0411-0.5539-1.5497-0.3579-1.0429-0.4526-1.1875c-0.0947-0.1445-0.3142-0.6404-0.4879-1.1018-0.5942-1.5788-2.5591-5.2205-4.045-7.4969-3.1891-4.8858-7.5651-9.4993-13.0789-13.7891-1.0594-0.8242-1.8736-1.397-3.7601-2.6452-2.0663-1.3672-2.4775-1.6294-3-1.9127-0.275-0.1491-0.95-0.5262-1.5-0.8379-1.4276-0.8092-3.7222-1.9962-4.0749-2.1081-0.1651-0.0523-0.501-0.2219-0.7465-0.3768s-0.7125-0.3721-1.0378-0.4825c-0.3252-0.1104-0.9119-0.3652-1.3036-0.5662s-0.9653-0.4303-1.2747-0.5095-0.7979-0.2803-1.0856-0.4468c-0.2877-0.1666-0.8784-0.3935-1.3125-0.5043-0.4342-0.1109-1.0561-0.3364-1.382-0.5011-0.326-0.1647-0.9691-0.3868-1.4291-0.4935-0.4601-0.1067-1.1578-0.3292-1.5505-0.4945s-1.2121-0.4096-1.8209-0.543c-0.6088-0.1333-1.3981-0.3577-1.754-0.4985s-1.1715-0.345-1.8125-0.4537c-0.641-0.1088-1.6689-0.3405-2.2843-0.5149-0.6154-0.1745-2.0049-0.4257-3.0879-0.5582-1.0829-0.1326-2.365-0.3244-2.8491-0.4262-0.484-0.1018-1.5313-0.2705-2.3271-0.3748-0.7959-0.1044-1.5557-0.2478-1.6883-0.3188-0.279-0.1493-0.317-0.5268-0.0734-0.729 0.2641-0.2191 1.9287-0.8772 2.7624-1.092 0.4165-0.1073 1.1264-0.3566 1.5775-0.5539 0.4512-0.1974 1.0882-0.4188 1.4156-0.4922s0.8624-0.2687 1.1887-0.4341 0.9505-0.3932 1.3869-0.5063c0.4365-0.1131 1.1075-0.362 1.4911-0.553 0.3836-0.1911 0.9788-0.4158 1.3225-0.4993 0.3437-0.0836 0.85-0.2812 1.125-0.4392 0.275-0.1579 0.8094-0.3856 1.1875-0.5059s0.9241-0.3476 1.2133-0.5052c0.2891-0.1576 0.8235-0.3849 1.1875-0.5053 0.3639-0.1203 0.8586-0.3414 1.0992-0.4914s0.7188-0.3771 1.0625-0.5047c0.3437-0.1275 0.8219-0.3516 1.0625-0.4978s0.8031-0.4473 1.25-0.6691c6.7067-3.3286 12.5987-8.2415 16.8514-14.0511 3.9538-5.4012 6.3004-10.6135 7.7152-17.1368 0.2773-1.2786 0.5583-4.5156 0.5593-6.4428 0.0027-5.4276-1.3263-10.7495-3.9985-16.0112-2.8515-5.6148-6.897-10.683-11.8149-14.8013-2.383-1.9955-6.1499-4.5596-8.1875-5.5731-0.3094-0.1538-0.6469-0.3531-0.75-0.4428s-0.4923-0.2829-0.8648-0.4294-0.8344-0.3782-1.0264-0.5149c-0.192-0.1368-0.658-0.3549-1.0354-0.4848-0.3775-0.1298-0.9281-0.3761-1.2236-0.5472s-0.789-0.3775-1.0966-0.4587c-0.3077-0.0811-0.8702-0.3041-1.25-0.4955-0.3799-0.1914-1.0422-0.4378-1.4718-0.5475s-1.0038-0.3132-1.2761-0.4521-0.9766-0.3649-1.5651-0.5021c-0.5886-0.1372-1.3924-0.3839-1.7864-0.5483s-1.1382-0.3679-1.6538-0.4524-1.428-0.3116-2.0276-0.5046c-0.5995-0.193-1.6005-0.413-2.2245-0.4889-0.6239-0.0758-1.8103-0.3029-2.6363-0.5047-0.8261-0.2017-2.2156-0.4288-3.088-0.5047s-2.4017-0.276-3.3986-0.4447c-2.0432-0.3458-3.4939-0.4557-10-0.7579-4.1095-0.1909-9.5448-0.2129-54.7461-0.2219-47.0607-0.0094-50.2499 0.0034-51.25 0.2058zm23.2604 22.3568c-0.562 0.1104-1.8916 0.8974-2.3608 1.3974-0.4388 0.4676-1.0701 1.9637-1.1292 2.676-0.047 0.5669 0.0105 0.7987 0.4053 1.6324 0.586 1.2377 1.1351 1.8025 2.3829 2.4515l1 0.5201h24.75 24.75l1.0507-0.4976c0.8501-0.4026 1.1639-0.6336 1.6437-1.2102 0.3262-0.3919 0.6662-0.9274 0.7556-1.1899 0.2041-0.5992 0.2112-2.2101 0.0122-2.7927-0.4132-1.2101-2.1492-2.7841-3.3208-3.0112-0.6987-0.1353-49.247-0.1119-49.9396 0.0242zm236.3791 3.2105c-0.1552 0.1321-0.3041 0.4857-0.3809 0.9044-0.1968 1.074-0.9677 2.4852-1.723 3.1541-0.3564 0.3156-0.7783 0.6129-0.9375 0.6607s-0.5426 0.2444-0.852 0.4368-0.9 0.4179-1.3125 0.5011c-0.9798 0.1976-1.6408 0.5423-1.855 0.9673-0.095 0.1884-0.2085 0.7855-0.2523 1.3269-0.0459 0.5666-0.2357 1.4418-0.4473 2.0625-0.2022 0.5929-0.4548 1.4583-0.5613 1.923-0.1064 0.4646-0.3283 1.1115-0.4929 1.4375-0.1647 0.3259-0.3679 0.9301-0.4515 1.3426s-0.3096 1.0313-0.5022 1.375-0.4176 0.9625-0.5 1.375-0.307 1.0313-0.499 1.375c-0.1921 0.3437-0.4111 0.9211-0.4867 1.2829-0.0755 0.3618-0.2988 0.9806-0.4961 1.375s-0.4295 1.0265-0.5159 1.4046c-0.0865 0.3781-0.3125 0.9688-0.5023 1.3125s-0.415 0.9344-0.5005 1.3125-0.3453 1.0779-0.5774 1.555c-0.2322 0.4771-0.4221 0.985-0.4221 1.1285 0 0.1436-0.1924 0.6625-0.4276 1.1533-0.2351 0.4907-0.515 1.2335-0.6219 1.6507s-0.3304 0.9703-0.4967 1.2292c-0.1663 0.259-0.3713 0.7802-0.4555 1.1583-0.0843 0.3781-0.3085 0.9688-0.4983 1.3125s-0.4163 0.9344-0.5035 1.3125c-0.0871 0.3781-0.312 0.9688-0.4998 1.3125s-0.4087 0.9054-0.4908 1.2481-0.342 1.0143-0.5776 1.4925-0.4283 0.9947-0.4283 1.1478-0.1884 0.6346-0.4186 1.07c-0.2303 0.4354-0.4903 1.092-0.5777 1.4592-0.0875 0.3672-0.3491 1.0323-0.5814 1.4779s-0.4223 0.9363-0.4223 1.0905-0.225 0.723-0.5 1.264-0.5 1.1035-0.5 1.25-0.225 0.709-0.5 1.25-0.5 1.1092-0.5 1.2627-0.1877 0.6353-0.4171 1.0707c-0.2295 0.4354-0.4867 1.0729-0.5718 1.4166-0.085 0.3437-0.3141 0.9063-0.5091 1.25s-0.4209 0.8781-0.502 1.1875-0.3064 0.8438-0.5006 1.1875c-0.1943 0.3437-0.4399 0.9594-0.5458 1.3681s-0.3039 0.8936-0.4399 1.0776-0.3413 0.6652-0.4562 1.0694-0.3645 0.988-0.5547 1.2974-0.4126 0.8438-0.4941 1.1875c-0.0816 0.3437-0.2822 0.8296-0.4459 1.0796-0.1636 0.25-0.3913 0.7843-0.5059 1.1875-0.1146 0.4031-0.3664 0.986-0.5596 1.2954-0.1931 0.3094-0.4172 0.8156-0.498 1.125-0.0807 0.3094-0.3054 0.8438-0.4993 1.1875s-0.4186 0.8781-0.4993 1.1875c-0.0808 0.3094-0.3061 0.8156-0.5007 1.125s-0.4199 0.8156-0.5007 1.125c-0.0807 0.3094-0.3054 0.8438-0.4993 1.1875s-0.4182 0.8781-0.4984 1.1875-0.2806 0.7602-0.4453 1.0018c-0.1648 0.2417-0.414 0.7721-0.5539 1.1788-0.14 0.4067-0.3387 0.8326-0.4417 0.9464s-0.3527 0.5485-0.555 0.9661c-0.2023 0.4175-0.428 0.7964-0.5016 0.8419s-0.2674 0.3459-0.4307 0.6676c-0.3233 0.637-2.0541 2.4483-3.0075 3.1474-0.3281 0.2406-0.8622 0.5781-1.1867 0.75-0.3246 0.1719-0.7487 0.4403-0.9425 0.5965-0.1938 0.1561-0.4979 0.3175-0.6758 0.3585-0.1779 0.0411-0.6628 0.2608-1.0776 0.4883s-1.118 0.4981-1.5625 0.6013c-0.4446 0.1032-1.0614 0.3253-1.3708 0.4934-0.3094 0.1682-0.8303 0.3701-1.1577 0.4486-0.6409 0.1537-1.9164 1.0388-2.2661 1.5725-0.4337 0.662-0.3987 0.9928 0.1705 1.6104 0.2879 0.3122 0.7298 0.6409 0.9821 0.7304 0.9461 0.3354 9.1558 0.0747 12.8962-0.4096 1.5098-0.1955 9.324-0.2866 11.5-0.1341 4.209 0.295 5.8539 0.3573 6.8125 0.2579 1.0875-0.1127 2.3491-0.4953 2.71-0.822 0.25-0.2262 0.3052-0.9134 0.1036-1.29-0.2002-0.3741-1.7807-1.3547-2.4112-1.496-0.3196-0.0716-0.9909-0.2926-1.4917-0.4911-0.5009-0.1985-1.2307-0.4269-1.6219-0.5077-0.3911-0.0808-0.8525-0.2581-1.0253-0.394s-0.584-0.3657-0.9138-0.5106c-1.2525-0.5504-3.2759-2.3889-3.5522-3.2277-0.0793-0.2406-0.2831-0.7147-0.4529-1.0534-0.216-0.4308-0.3274-0.9005-0.3707-1.5625-0.0533-0.8145-0.0091-1.1123 0.3167-2.1341 0.2082-0.6531 0.4636-1.6497 0.5676-2.2147s0.3049-1.2891 0.4465-1.6092 0.3663-1.1235 0.4994-1.7853c0.133-0.6618 0.383-1.5127 0.5554-1.8908s0.3806-1.0813 0.4627-1.5625c0.082-0.4812 0.2882-1.1844 0.4582-1.5625s0.4121-1.1471 0.538-1.7088c0.1258-0.5617 0.3448-1.2485 0.4864-1.5261 0.1417-0.2777 0.3701-0.9876 0.5077-1.5776s0.3683-1.3043 0.5126-1.5873c0.1444-0.283 0.3421-0.7824 0.4393-1.1098 0.1331-0.4482 0.3261-0.7202 0.7812-1.1013 0.3325-0.2783 0.7572-0.5641 0.9438-0.6351 0.4383-0.1666 25.9185-0.1732 27.0731-7e-3 0.758 0.1091 0.8553 0.1615 1.4507 0.7803 0.5799 0.6026 0.6522 0.7431 0.7903 1.5364 0.0837 0.4802 0.31 1.2389 0.503 1.6859 0.1931 0.4471 0.4217 1.2067 0.508 1.6879 0.0864 0.4812 0.3177 1.2831 0.514 1.7819s0.4201 1.314 0.4973 1.8116 0.2956 1.327 0.4854 1.8431c0.1897 0.5161 0.4145 1.3603 0.4995 1.8759s0.3121 1.4156 0.5047 2 0.4123 1.5125 0.4884 2.0625c0.076 0.55 0.2802 1.5226 0.4538 2.1613 0.3586 1.32 0.566 3.3815 0.4431 4.4056-0.0605 0.5046-0.2464 0.9707-0.6866 1.7216-0.3321 0.5663-0.6995 1.081-0.8166 1.1437-0.1171 0.0626-0.4907 0.3444-0.8302 0.6262-0.3395 0.2817-0.7579 0.5452-0.9298 0.5854s-0.7436 0.2643-1.2705 0.4981c-0.6365 0.2823-1.3078 0.4686-2 0.5549-1.3082 0.1632-1.9293 0.3011-2.6906 0.5973-0.3308 0.1287-0.9053 0.3057-1.2767 0.3933-0.5491 0.1294-0.7885 0.2779-1.2813 0.7945-0.6513 0.6828-0.7294 0.9792-0.4171 1.5831 0.238 0.4603 0.4516 0.5725 1.5842 0.8321 0.6995 0.1603 1.3699 0.2001 2.852 0.1693 8.1203-0.1689 20.3962 0.0077 21.375 0.3074 0.1031 0.0316 2.3813 0.1471 5.0625 0.2566 4.7673 0.1947 7.2122 0.1683 8.0339-0.087 0.4465-0.1387 1.0306-0.8742 1.0255-1.2912-0.0045-0.3703-0.8047-1.3988-1.2764-1.6407-0.2244-0.115-0.5605-0.3364-0.747-0.492-0.2252-0.1879-0.6446-0.3311-1.25-0.4266-0.501-0.0791-1.3891-0.3076-1.9735-0.5078-0.5844-0.2001-1.3719-0.4181-1.75-0.4845s-1.0713-0.3215-1.5403-0.5669c-0.4691-0.2454-0.9593-0.4462-1.0894-0.4462s-0.4214-0.1609-0.6472-0.3577c-0.2258-0.1967-0.5793-0.4448-0.7856-0.5513-0.423-0.2184-2.4101-2.2441-3.036-3.0948-0.7258-0.9867-1.5009-2.2521-1.5852-2.5881-0.0451-0.1796-0.2435-0.5558-0.4409-0.8361-0.1974-0.2802-0.4239-0.7626-0.5033-1.072-0.0795-0.3094-0.3007-0.8438-0.4916-1.1875-0.191-0.3437-0.4432-1.0188-0.5605-1.5-0.1174-0.4812-0.3216-1.0501-0.4538-1.2641s-0.3328-0.8046-0.4459-1.3125c-0.113-0.5079-0.3584-1.2328-0.5453-1.6109s-0.4323-1.103-0.5453-1.6109c-0.1131-0.5079-0.318-1.1054-0.4554-1.3277-0.1374-0.2224-0.3625-0.8568-0.5001-1.4099-0.1377-0.5531-0.3903-1.2775-0.5615-1.6098-0.1711-0.3323-0.3683-0.9104-0.4382-1.2846-0.07-0.3742-0.2947-1.0243-0.4995-1.4446s-0.4279-1.0572-0.4958-1.4153-0.2924-1.0017-0.4989-1.4304c-0.2066-0.4286-0.4335-1.0855-0.5043-1.4597s-0.2921-1.021-0.4918-1.4375c-0.1997-0.4164-0.4308-1.0946-0.5134-1.5071s-0.3047-1.0594-0.4935-1.4375c-0.1889-0.3781-0.4361-1.1094-0.5496-1.625-0.1134-0.5156-0.3171-1.1062-0.4527-1.3125s-0.3392-0.7969-0.4526-1.3125-0.3412-1.2069-0.5063-1.5361-0.3904-1.0042-0.5006-1.5c-0.1103-0.4958-0.3339-1.1681-0.497-1.494-0.1631-0.326-0.3818-0.9729-0.486-1.4375-0.1041-0.4647-0.3519-1.2105-0.5506-1.6574-0.1986-0.4469-0.4286-1.15-0.5111-1.5625s-0.2842-1.0156-0.4482-1.3402-0.4125-1.0805-0.5523-1.6798c-0.1397-0.5993-0.3626-1.2653-0.4953-1.48s-0.3577-0.8897-0.5-1.5-0.3673-1.2853-0.5-1.5-0.3556-0.8807-0.4953-1.48c-0.1398-0.5993-0.3905-1.3588-0.5572-1.6877-0.1666-0.3289-0.368-0.9566-0.4475-1.3948s-0.2828-1.0697-0.4518-1.4032c-0.169-0.3336-0.3975-1.0121-0.5077-1.5079-0.1103-0.4958-0.3334-1.167-0.4958-1.4916s-0.4041-1.0558-0.5371-1.625c-0.1329-0.5691-0.3863-1.3501-0.5631-1.7355-0.1767-0.3854-0.3822-1.03-0.4566-1.4325s-0.2753-1.0082-0.4465-1.346c-0.1712-0.3379-0.3945-1.0131-0.4961-1.5006-0.1017-0.4875-0.3521-1.2676-0.5566-1.7335s-0.4311-1.171-0.5035-1.5669-0.2924-1.0874-0.4887-1.5367-0.4401-1.2158-0.5418-1.7033c-0.1016-0.4875-0.3216-1.1605-0.4888-1.4956-0.1671-0.335-0.3734-0.9748-0.4583-1.4217-0.085-0.4469-0.3127-1.1781-0.5061-1.625-0.1933-0.4469-0.4159-1.15-0.4946-1.5625-0.1414-0.7412-0.6801-2.222-0.9233-2.5381-0.2623-0.3407-0.5507-0.404-0.8152-0.1788zm-3.4735 17.1856c0.0966 0.1547 0.2129 0.5344 0.2586 0.8438 0.0456 0.3094 0.2454 0.9 0.4439 1.3125 0.1986 0.4125 0.425 1.1098 0.5032 1.5496 0.0781 0.4398 0.3029 1.1429 0.4996 1.5625 0.1966 0.4196 0.4213 1.1211 0.4993 1.5588 0.078 0.4378 0.3032 1.1484 0.5005 1.5791s0.4223 1.1413 0.5 1.5791c0.0777 0.4377 0.3052 1.1615 0.5056 1.6084s0.4454 1.2133 0.5444 1.7033c0.0991 0.4899 0.3208 1.1684 0.4928 1.5078s0.3771 0.9792 0.4559 1.4218c0.0787 0.4425 0.2861 1.114 0.4609 1.4921s0.4207 1.1471 0.5465 1.7088 0.3531 1.2648 0.5052 1.5625c0.152 0.2977 0.377 1.0008 0.5 1.5625 0.1229 0.5617 0.3479 1.2648 0.5 1.5625 0.152 0.2977 0.377 1.0008 0.5 1.5625 0.1229 0.5617 0.3394 1.2485 0.481 1.5261 0.1417 0.2777 0.3701 0.9876 0.5077 1.5776s0.3626 1.2931 0.5 1.5625 0.3623 0.9718 0.4996 1.561c0.1374 0.5891 0.3892 1.3461 0.5595 1.6822s0.3454 0.835 0.3892 1.1086c0.0954 0.5967-0.1275 1.3515-0.4501 1.5242-0.1486 0.0795-4.4753 0.124-12.0621 0.124h-11.8303l-0.3654-0.3654c-0.2788-0.2788-0.3654-0.4808-0.3654-0.8523 0-0.6118 0.2862-1.5879 0.6738-2.2984 0.1639-0.3005 0.3684-0.8558 0.4543-1.2339 0.086-0.3781 0.3108-0.9969 0.4995-1.375s0.4338-1.0427 0.5447-1.4769c0.111-0.4341 0.337-1.0248 0.5023-1.3125s0.3622-0.8204 0.4376-1.1837c0.0754-0.3634 0.3003-0.9822 0.4999-1.375 0.1996-0.3929 0.4315-1.0238 0.5153-1.4019 0.0839-0.3781 0.3085-0.9688 0.4992-1.3125s0.4085-0.9211 0.4841-1.2829c0.0755-0.3618 0.307-0.9939 0.5143-1.4046s0.4388-1.0428 0.5143-1.4046c0.0756-0.3618 0.2942-0.9392 0.4857-1.2829s0.4126-0.9344 0.4912-1.3125 0.302-0.9969 0.4963-1.375 0.425-0.9969 0.5125-1.375 0.3182-0.9969 0.5125-1.375 0.4192-0.9969 0.4998-1.375c0.0805-0.3781 0.3014-0.9688 0.4909-1.3125s0.4133-0.9344 0.4973-1.3125c0.0839-0.3781 0.2901-0.9392 0.458-1.2469 0.1679-0.3076 0.4172-0.9769 0.554-1.4872 0.1368-0.5104 0.3817-1.1586 0.5442-1.4407 0.1626-0.282 0.3849-0.8679 0.494-1.3021 0.109-0.4341 0.3447-1.0391 0.5236-1.3444 0.4884-0.8335 0.9129-1.0152 1.2206-0.5225zm309.3238-14.401c-0.5878 0.0524-1.6836 0.2435-2.4351 0.4246s-1.7595 0.3851-2.24 0.4532c-0.4806 0.0682-1.1786 0.2635-1.5513 0.4341-0.3726 0.1706-1.0211 0.3987-1.4411 0.5068s-1.045 0.3541-1.3887 0.5465-0.8374 0.4176-1.0969 0.5005c-0.2596 0.0828-0.632 0.2853-0.8276 0.4499s-0.602 0.4061-0.9031 0.5367-0.7661 0.4129-1.0333 0.6275c-0.2673 0.2145-0.5328 0.39-0.5901 0.39-0.2124 0-3.1999 2.7528-3.924 3.6156-0.4125 0.4916-0.9251 1.1026-1.1392 1.3579-0.2141 0.2552-0.4896 0.6609-0.6123 0.9015s-0.3476 0.6062-0.4998 0.8125-0.3413 0.5678-0.4202 0.8035-0.3084 0.6857-0.5099 1c-0.2016 0.3143-0.4288 0.8528-0.5051 1.1965-0.0762 0.3437-0.2999 0.9625-0.4972 1.375-0.1973 0.4126-0.4209 1.1718-0.497 1.6875-0.0761 0.5156-0.2736 1.6125-0.4389 2.4375-0.5513 2.752-0.5342 5.6017 0.0468 7.8125 0.1355 0.5156 0.3089 1.3298 0.3852 1.8093 0.0808 0.5069 0.2867 1.1348 0.4921 1.5 0.1943 0.3455 0.4232 0.8532 0.5086 1.1282s0.2807 0.6687 0.4338 0.875c0.1532 0.2063 0.3798 0.5719 0.5036 0.8125 0.2371 0.4611 0.5121 0.8075 2.1154 2.6647 1.4051 1.6276 2.0936 2.2817 4.8841 4.6397 0.4446 0.3757 1.8872 1.4167 2.3931 1.727 0.1963 0.1204 0.5335 0.3454 0.7494 0.5 0.3924 0.2811 0.5088 0.3555 1.795 1.1477 0.3781 0.2329 0.8563 0.5613 1.0625 0.7297s0.5719 0.4062 0.8125 0.5285 0.6223 0.3833 0.8481 0.58c0.2258 0.1968 0.4896 0.3577 0.5861 0.3577 0.0966 0 0.4356 0.225 0.7533 0.5s0.6567 0.5 0.7533 0.5c0.0965 0 0.3603 0.1613 0.5861 0.3585s0.7059 0.5075 1.0669 0.6896c0.3609 0.1821 0.6562 0.3856 0.6562 0.4522s0.3334 0.2894 0.7409 0.4951 0.7772 0.4328 0.8216 0.5046 0.4141 0.2989 0.8216 0.5046 0.7409 0.4216 0.7409 0.4798 0.3301 0.2817 0.7335 0.4967 0.8074 0.4801 0.8979 0.5891c0.0904 0.1089 0.365 0.3081 0.6102 0.4425 0.2453 0.1345 0.6783 0.4257 0.9623 0.6471 0.284 0.2215 0.8413 0.6277 1.2384 0.9027 2.1158 1.4651 4.1087 3.5084 5.2298 5.3621 0.93 1.5378 1.1233 1.9176 1.2673 2.491 0.0894 0.3558 0.3077 0.9913 0.4851 1.4121 0.401 0.9515 0.6048 2.9499 0.6103 5.9848 0.0052 2.851-0.2035 4.6415-0.6629 5.6875-0.1962 0.4469-0.4453 1.1331-0.5535 1.5249s-0.2535 0.7475-0.3228 0.7903c-0.0694 0.0429-0.3011 0.4255-0.5149 0.8502-0.4007 0.796-0.5855 1.0518-1.692 2.3426-1.0511 1.2262-2.8161 2.6823-3.6977 3.0507-0.2508 0.1048-0.7158 0.3552-1.0333 0.5566-0.3174 0.2013-0.8046 0.4044-1.0825 0.4514-0.2779 0.0469-0.7938 0.2126-1.1465 0.368-0.9293 0.4098-1.6672 0.5349-3.7037 0.6283-2.1098 0.0967-4.5784-0.0787-5.3782-0.3821-0.3076-0.1167-1.0345-0.3757-1.6154-0.5756-0.5808-0.1999-1.2277-0.4938-1.4375-0.6529-0.2098-0.1592-0.5878-0.3571-0.8402-0.4398-0.2523-0.0827-0.529-0.2351-0.615-0.3387-0.0859-0.1036-0.4139-0.337-0.7287-0.5187-0.8176-0.4719-1.5031-1.0497-2.8717-2.4204-1.3416-1.3437-1.8703-1.9699-2.2677-2.6858-0.1485-0.2676-0.3723-0.599-0.4974-0.7365-0.125-0.1375-0.3636-0.5594-0.5301-0.9375s-0.3931-0.7621-0.5035-0.8534c-0.1105-0.0912-0.2951-0.4568-0.4103-0.8125-0.1152-0.3556-0.3668-0.9279-0.5591-1.2716s-0.4391-0.9721-0.5483-1.3964c-0.1092-0.4242-0.3382-1.043-0.5088-1.375s-0.3922-1.0377-0.4923-1.5682c-0.1838-0.9735-0.7514-2.4358-1.1064-2.8503-0.3291-0.3844-1.4631-0.5639-2.4374-0.3857-1.0938 0.2-1.3354 0.373-1.5894 1.1379-0.1832 0.5514-0.1927 0.8013-0.0731 1.911 0.0757 0.7022 0.1925 2.8577 0.2595 4.7901 0.1169 3.3698 0.2291 4.6499 0.5031 5.7366 0.0694 0.275 0.2361 1.0177 0.3705 1.6504 0.2066 0.9727 0.3329 1.2708 0.8176 1.9292 0.7356 0.9993 2.7236 2.6887 3.52 2.9915 0.1812 0.0689 0.5125 0.2861 0.7364 0.4826 0.2238 0.1965 0.6227 0.4265 0.8864 0.511 0.2637 0.0846 0.669 0.2954 0.9007 0.4685 0.2316 0.1732 0.7549 0.4187 1.1628 0.5456 0.4079 0.127 0.9777 0.3688 1.2663 0.5374 0.2886 0.1685 0.9263 0.3898 1.4171 0.4918 0.4908 0.1019 1.1279 0.3054 1.4157 0.4523 0.3278 0.1672 1.0453 0.3341 1.9202 0.4465 0.7682 0.0988 1.9873 0.2617 2.7092 0.3621 1.8161 0.2525 4.7177 0.4783 4.8776 0.3795 0.0728-0.045 0.7066-0.1287 1.4086-0.1861 3.1027-0.2537 5.9221-0.6498 6.8388-0.9608 0.5156-0.175 1.4013-0.4215 1.9683-0.548 0.5669-0.1264 1.27-0.3673 1.5625-0.5351 0.2924-0.1679 0.8411-0.393 1.2192-0.5002s0.8829-0.3392 1.1217-0.5155 0.6441-0.3771 0.9006-0.4462 0.6236-0.2572 0.8158-0.418c0.1922-0.1609 0.6447-0.4416 1.0057-0.6238 0.3609-0.1823 0.6562-0.3812 0.6562-0.442s0.202-0.2297 0.4489-0.3754c1.4153-0.835 3.5583-2.9023 4.9886-4.8122 0.3437-0.4591 0.7858-1.0429 0.9824-1.2974 0.1965-0.2545 0.4827-0.744 0.636-1.0877s0.3691-0.6996 0.4795-0.7909c0.1105-0.0912 0.2969-0.4568 0.4143-0.8125 0.1174-0.3556 0.4018-1.0028 0.6319-1.4382s0.4184-0.8945 0.4184-1.0201c0-0.2239 0.2871-1.1648 0.6768-2.2182 0.3081-0.8328 0.7414-4.9779 0.7483-7.1576 0.0078-2.5117-0.4282-5.9994-0.8734-6.9863-0.1672-0.3706-0.3919-1.0133-0.4995-1.4283-0.1075-0.4149-0.352-0.9835-0.5432-1.2636-0.1913-0.2801-0.4144-0.7134-0.4956-0.9629-0.0813-0.2495-0.2573-0.5527-0.3911-0.6738s-0.4144-0.5076-0.6236-0.8589c-0.5553-0.9323-1.3192-1.9387-2.3086-3.0414-1.2492-1.3922-3.671-3.5602-4.6129-4.1295-0.1982-0.1198-0.6095-0.4287-0.9139-0.6865-0.3044-0.2579-0.6029-0.4688-0.6633-0.4688s-0.3589-0.2109-0.6633-0.4688c-0.3044-0.2578-0.7157-0.5684-0.9139-0.6903-1.0353-0.6367-1.7378-1.1077-1.9728-1.323-0.1444-0.1322-0.5538-0.3861-0.9099-0.5642-0.3561-0.1782-0.6833-0.3821-0.7272-0.4531s-0.3151-0.2471-0.6026-0.3911c-0.2876-0.1441-0.6634-0.3934-0.8353-0.5541-0.1719-0.1606-0.5723-0.4069-0.8897-0.5472-0.3175-0.1404-0.6515-0.3447-0.7422-0.454s-0.4216-0.3293-0.7352-0.4888c-0.3137-0.1596-0.7891-0.4646-1.0563-0.6778-0.2673-0.2132-0.5607-0.3876-0.6519-0.3876-0.0913 0-0.3508-0.1612-0.5766-0.3582s-0.6356-0.4816-0.9106-0.6325c-0.5569-0.3055-1.5573-0.9723-2.1157-1.4101-0.2011-0.1577-0.6007-0.4273-0.8878-0.5992-1.0689-0.6398-1.719-1.0745-2.2434-1.5-0.2965-0.2406-0.8626-0.6906-1.258-1-1.4706-1.1508-3.1463-2.7468-3.9951-3.805-0.4813-0.5999-1.0577-1.3038-1.281-1.5641-0.2233-0.2602-0.4861-0.7001-0.5839-0.9773-0.0979-0.2773-0.3182-0.7206-0.4897-0.9851-0.2088-0.3222-0.3969-0.935-0.5696-1.856-0.4327-2.3067-0.4462-3.2114-0.0884-5.9375 0.275-2.0953 0.3717-2.5363 0.6886-3.1411 0.2028-0.387 0.4313-0.9362 0.5079-1.2204 0.0765-0.2842 0.2933-0.6989 0.4818-0.9214s0.4877-0.6296 0.6649-0.9046c0.6015-0.9332 2.737-2.9694 3.4194-3.2603 0.2062-0.0879 0.5704-0.3056 0.8092-0.4837 0.2388-0.1782 0.6607-0.3845 0.9375-0.4585 0.2768-0.0741 0.8408-0.2942 1.2533-0.4891 0.437-0.2066 1.1674-0.4132 1.75-0.495 0.55-0.0772 1.4422-0.2215 1.9826-0.3206 1.1118-0.204 3.3015-0.2361 4.3299-0.0634 2.7392 0.4598 2.9528 0.5176 4.2078 1.1393 0.6987 0.3462 1.3415 0.7151 1.4284 0.8198 0.087 0.1048 0.3192 0.2738 0.5161 0.3756 0.7684 0.3974 1.9324 1.6011 3.6349 3.7592 0.6004 0.7611 1.5614 2.2575 1.6663 2.5948 0.0439 0.1413 0.2325 0.4538 0.4191 0.6944s0.4241 0.6906 0.5279 1 0.3388 0.7834 0.5223 1.0534c0.1834 0.2699 0.366 0.6356 0.4056 0.8125 0.0397 0.1769 0.3565 0.9043 0.704 1.6165l0.6318 1.295 1.1276 0.5488c1.0171 0.4951 1.2168 0.5488 2.0385 0.5488 0.8344 0 0.947-0.0316 1.339-0.3758 0.7554-0.6633 0.8645-1.0561 0.7025-2.5311-0.0774-0.7044-0.1879-1.5337-0.2456-1.8431s-0.1708-1.1204-0.2514-1.8023c-0.0845-0.7143-0.2957-1.6442-0.4984-2.1938-0.1934-0.5247-0.4187-1.3958-0.5005-1.9357-0.0819-0.5398-0.3091-1.3818-0.505-1.871s-0.4134-1.2448-0.4833-1.6791c-0.07-0.4343-0.2398-0.9676-0.3776-1.1851-0.1377-0.2175-0.3591-0.5927-0.4921-0.8337-0.3158-0.5723-1.377-1.4607-2.0129-1.685-0.2764-0.0976-0.7422-0.3154-1.0351-0.4841-0.2928-0.1686-0.8699-0.3776-1.2824-0.4643s-1.0226-0.2926-1.3558-0.4575c-0.3331-0.1649-1.1595-0.4053-1.8362-0.5343-0.6768-0.1289-1.5983-0.348-2.0478-0.4869-0.4495-0.1388-1.3869-0.3108-2.0832-0.3823-1.4231-0.146-7.7327-0.1458-9.3708 3e-4zm-233.6187 1.3136c-1.4988 0.2178-2.4329 0.5923-2.6232 1.0519-0.2482 0.5991-0.0561 1.0578 0.7259 1.7329 0.503 0.4344 0.9278 0.676 1.4582 0.8293 0.4116 0.119 0.9741 0.3486 1.25 0.5103 0.2759 0.1616 0.7461 0.333 1.0448 0.3807 0.2988 0.0478 0.8052 0.2671 1.1253 0.4873 0.3202 0.2202 0.7507 0.4883 0.9568 0.5958 0.4117 0.2147 2.1761 1.9179 3.0622 2.9559 0.3094 0.3624 0.7031 0.8052 0.875 0.9839 0.2993 0.3113 0.7117 0.8551 1.6805 2.2157 0.2448 0.3437 0.6976 0.9625 1.0064 1.375s0.6602 0.9109 0.781 1.1075c0.1208 0.1967 0.3461 0.5342 0.5007 0.75 0.1546 0.2159 0.3796 0.5534 0.5 0.75 0.1204 0.1967 0.3453 0.5342 0.4998 0.75 0.1545 0.2159 0.4233 0.6822 0.5972 1.0363 0.174 0.3541 0.4036 0.7162 0.5101 0.8047 0.1066 0.0884 0.334 0.4375 0.5054 0.7757s0.4763 0.8423 0.6777 1.1203 0.3662 0.5795 0.3662 0.6699 0.1671 0.3547 0.3713 0.5873c0.2043 0.2326 0.4787 0.6705 0.61 0.9731 0.1312 0.3026 0.4141 0.7689 0.6287 1.0361 0.2145 0.2673 0.39 0.5542 0.39 0.6375 0 0.0834 0.1648 0.3791 0.3662 0.6571s0.5063 0.7821 0.6777 1.1203 0.4063 0.6935 0.522 0.7895c0.1158 0.0961 0.3389 0.4651 0.4958 0.8199 0.157 0.3549 0.3492 0.6847 0.4271 0.7329 0.078 0.0482 0.308 0.4169 0.5112 0.8194s0.4332 0.7712 0.5112 0.8194c0.0779 0.0482 0.2701 0.378 0.4271 0.7329 0.1569 0.3548 0.38 0.7238 0.4958 0.8199 0.1157 0.096 0.3506 0.4513 0.522 0.7895s0.4763 0.8423 0.6777 1.1203 0.3662 0.5689 0.3662 0.6464c0 0.0774 0.225 0.4403 0.5 0.8063s0.5 0.7385 0.5 0.8278 0.225 0.4618 0.5 0.8278 0.5 0.7289 0.5 0.8063c0 0.0775 0.1648 0.3684 0.3662 0.6464s0.5063 0.7821 0.6777 1.1203 0.401 0.6891 0.5103 0.7798 0.3133 0.424 0.4534 0.7406c0.14 0.3166 0.358 0.6889 0.4844 0.8272 0.1264 0.1384 0.3568 0.5047 0.5119 0.8141 0.1552 0.3094 0.4071 0.7312 0.5598 0.9375s0.3615 0.6281 0.4641 0.9375c0.1025 0.3094 0.335 0.7812 0.5166 1.0484s0.3905 0.7098 0.4642 0.9835c0.0737 0.2738 0.3269 0.8613 0.5627 1.3058 0.2358 0.4444 0.4287 0.9233 0.4287 1.0641s0.1828 0.769 0.4062 1.3959l0.4063 1.1398v12c0 11.3463-0.0125 12.0306-0.2291 12.5625-0.1259 0.3094-0.3595 1.003-0.5189 1.5413-0.1594 0.5384-0.4013 1.1009-0.5376 1.25-0.1362 0.1492-0.3352 0.4446-0.4422 0.6566-0.216 0.4278-2.4188 2.5521-2.6464 2.5521-0.0794 0-0.4214 0.1979-0.76 0.4397-0.3387 0.2419-0.8408 0.5005-1.1158 0.5748s-0.8375 0.294-1.25 0.4881c-0.4648 0.2186-1.2254 0.4259-2 0.5448-0.6875 0.1056-1.7687 0.3631-2.4026 0.5723-0.634 0.2092-1.2294 0.3803-1.3233 0.3803-0.2681 0-1.2822 0.8437-1.446 1.2031-0.2186 0.4798 0.1467 1.1439 0.8231 1.4965 0.4292 0.2237 0.8367 0.2909 2.2106 0.3645 1.8601 0.0996 7.3547-0.0869 11.3257-0.3845 3.2136-0.2408 10.2929-0.1856 14 0.1092 3.556 0.2828 8.1581 0.3925 9.6742 0.2306 1.0722-0.1145 1.283-0.1764 1.5847-0.4654 0.5768-0.5526 0.6775-0.9436 0.3889-1.5091-0.3462-0.6784-0.6035-0.871-1.4603-1.0937-0.4125-0.1072-1.0648-0.3063-1.4496-0.4424-0.3847-0.1361-1.2847-0.3405-2-0.4543-0.8613-0.1369-1.5325-0.3257-1.9879-0.5593-0.3781-0.1939-0.924-0.4143-1.2131-0.4897-0.289-0.0754-0.6828-0.2683-0.875-0.4287s-0.5463-0.3925-0.7869-0.5157c-1.0903-0.5586-3.0425-2.4917-3.3868-3.3537-0.0867-0.2172-0.3124-0.6199-0.5015-0.8949-0.2549-0.3706-0.419-0.8883-0.634-2l-0.2902-1.5v-12.4375c0-11.449 0.0183-12.5567 0.2299-13.9375 0.2624-1.7111 0.4029-2.2451 0.7074-2.6875 0.1182-0.1719 0.316-0.6219 0.4393-1 0.1234-0.3781 0.3535-0.8578 0.5113-1.0661 0.1579-0.2082 0.3883-0.6024 0.5121-0.8761 0.2197-0.4858 0.5432-1.0302 1.3944-2.3467 0.2307-0.3567 0.5531-0.9118 0.7164-1.2335s0.3555-0.6211 0.4271-0.6654c0.0716-0.0442 0.2964-0.4097 0.4996-0.8122s0.4282-0.7681 0.5-0.8125 0.2968-0.41 0.5-0.8125 0.4282-0.7681 0.5-0.8125 0.2982-0.4001 0.503-0.7904 0.4777-0.8502 0.6065-1.0221c0.1287-0.1719 0.3958-0.585 0.5935-0.918 0.5268-0.8874 1.7029-2.7427 2.1359-3.3694 0.1521-0.2201 0.4149-0.6568 0.584-0.9705 0.1692-0.3136 0.401-0.6478 0.515-0.7425 0.1141-0.0947 0.3704-0.4948 0.5695-0.8893 0.1991-0.3944 0.4206-0.7533 0.4922-0.7975 0.0716-0.0443 0.2653-0.3472 0.4305-0.6732 0.1652-0.3261 0.3935-0.6701 0.5074-0.7646s0.3511-0.4566 0.5271-0.8046c0.1761-0.3481 0.4811-0.8285 0.6778-1.0676s0.3576-0.5044 0.3576-0.5894c0-0.0851 0.1613-0.3395 0.3585-0.5653s0.5021-0.6954 0.6777-1.0435c0.1756-0.348 0.4124-0.7101 0.5263-0.8046s0.3454-0.4285 0.5146-0.7421c0.1691-0.3137 0.4319-0.747 0.584-0.9629 0.152-0.2158 0.3761-0.5533 0.4979-0.75 0.1218-0.1966 0.4171-0.6388 0.6562-0.9825 0.8441-1.2134 1.212-1.754 1.4462-2.125 0.1301-0.2063 0.4343-0.6281 0.6758-0.9375s0.6918-0.9281 1.0005-1.375c0.3088-0.4469 0.7313-1.0375 0.939-1.3125 0.5943-0.7871 2.5178-2.6913 2.9338-2.9045 0.2073-0.1062 0.5344-0.3245 0.7267-0.485s0.6302-0.3751 0.973-0.4769c0.3428-0.1019 0.7868-0.3016 0.9866-0.4438 0.1998-0.1423 0.8695-0.3669 1.4881-0.4991 0.6187-0.1322 1.3522-0.3563 1.6301-0.4981s0.9556-0.3653 1.506-0.4968c0.5505-0.1314 1.1562-0.3494 1.3462-0.4844 0.1899-0.1349 0.5468-0.3293 0.7931-0.432 0.8847-0.3688 1.294-1.4028 0.7501-1.895-0.1318-0.1193-0.6756-0.3553-1.2083-0.5245-1.1188-0.3552-2.6361-0.4019-5.8646-0.1802-5.0494 0.3468-6.9292 0.3997-12.1875 0.3431-3.0594-0.0329-6.0688-0.0862-6.6875-0.1183-1.3154-0.0683-4.0713 0.2165-4.565 0.4718-0.4016 0.2077-0.4975 0.4113-0.4975 1.0562 0 0.4188 0.0782 0.5414 0.6642 1.042 0.4426 0.3782 0.905 0.6375 1.3867 0.7775 0.3973 0.1155 1.0125 0.3414 1.367 0.5019 0.3546 0.1606 1.0888 0.3525 1.6316 0.4266 0.6667 0.0909 1.1941 0.2511 1.625 0.4934 0.3509 0.1974 0.8397 0.4231 1.0861 0.5016 0.5853 0.1865 1.0037 0.6393 1.5125 1.637 0.3783 0.7417 0.4144 0.9105 0.4144 1.9375 0 0.7955-0.0657 1.2855-0.2244 1.673-0.1235 0.3013-0.3102 0.9201-0.415 1.375-0.1048 0.4548-0.3489 1.0801-0.5425 1.3895s-0.4195 0.7749-0.502 1.0344c-0.0826 0.2596-0.2848 0.632-0.4494 0.8276s-0.412 0.6187-0.5497 0.9401c-0.1378 0.3214-0.3918 0.7696-0.5645 0.996s-0.3782 0.6035-0.4568 0.838c-0.0785 0.2345-0.2765 0.6066-0.4399 0.8269-0.1635 0.2203-0.4127 0.6703-0.5537 1s-0.3614 0.712-0.4896 0.8495-0.3506 0.5245-0.4941 0.8599c-0.1435 0.3355-0.3955 0.77-0.5601 0.9656s-0.3684 0.568-0.4527 0.8276c-0.0844 0.2595-0.3042 0.6688-0.4885 0.9094-0.1842 0.2406-0.4111 0.6344-0.5041 0.875s-0.2859 0.601-0.4286 0.8008-0.4 0.6267-0.5719 0.9486c-0.5218 0.9773-1.0475 1.8778-1.3389 2.2936-0.1521 0.217-0.4133 0.6476-0.5806 0.957s-0.4929 0.8501-0.7236 1.2016c-0.2306 0.3516-0.5319 0.8253-0.6694 1.0529-0.5597 0.9262-1.5055 2.3993-2.0264 3.1563-0.1521 0.2209-0.4132 0.6548-0.5803 0.9642s-0.4281 0.6749-0.5801 0.8122-0.3581 0.4079-0.4581 0.6012c-0.4836 0.9353-1.6463 1.8366-2.3691 1.8366-0.5746 0-1.7975-1.4222-2.6735-3.1091-0.1719-0.331-0.4359-0.7547-0.5866-0.9417-0.1508-0.1869-0.3425-0.5472-0.426-0.8008-0.0836-0.2535-0.3328-0.7241-0.5539-1.0457-0.221-0.3217-0.4394-0.7341-0.4851-0.9165-0.0458-0.1824-0.2779-0.6146-0.5158-0.9604-0.2379-0.3459-0.4326-0.7006-0.4326-0.7883s-0.188-0.4329-0.4177-0.7672c-0.2298-0.3343-0.486-0.8149-0.5694-1.068s-0.314-0.6645-0.5123-0.9141c-0.1984-0.2496-0.4507-0.7249-0.5608-1.0563s-0.3083-0.7004-0.4405-0.82-0.336-0.4778-0.4529-0.796c-0.1169-0.3181-0.3348-0.7471-0.4844-0.9534-0.1495-0.2063-0.4496-0.7266-0.6669-1.1563-0.2173-0.4296-0.5729-1.1328-0.7902-1.5624-0.2173-0.4297-0.5197-0.95-0.672-1.1563s-0.3433-0.5821-0.4243-0.8352-0.3099-0.6648-0.5086-0.9148-0.4295-0.6617-0.5129-0.9148-0.3325-0.7234-0.5536-1.045c-0.221-0.3217-0.4409-0.7402-0.4886-0.9301-0.0476-0.1899-0.2478-0.5488-0.4449-0.7976s-0.3973-0.6077-0.4449-0.7976c-0.0477-0.1899-0.2742-0.6179-0.5035-0.9511-0.2292-0.3333-0.4542-0.7551-0.5-0.9375-0.0457-0.1824-0.2641-0.5948-0.4851-0.9165-0.2211-0.3216-0.4749-0.8098-0.5639-1.0848-0.0891-0.275-0.33-0.8357-0.5353-1.2459-0.2915-0.5825-0.3872-0.9681-0.4366-1.7594-0.0779-1.2485 0.1384-1.7992 0.8951-2.279 0.2814-0.1784 0.756-0.4799 1.0547-0.6699 0.2986-0.19 0.8611-0.4092 1.25-0.4872 0.3888-0.0779 1.157-0.3038 1.707-0.5019 0.55-0.198 1.3142-0.4454 1.6983-0.5497 0.5701-0.1548 0.8193-0.3176 1.3579-0.887 0.5877-0.6214 0.6512-0.7409 0.5831-1.0962-0.2411-1.2564-2.5213-1.6197-7.9518-1.2666-1.9084 0.124-11.2994 0.1408-13.75 0.0245-0.7906-0.0375-2.5063-0.1349-3.8125-0.2165-3.5231-0.22-4.391-0.2292-5.5625-0.0589zm109.6141-0.0513c-0.8746 0.1269-1.9343 0.4706-2.386 0.7739-0.3012 0.2023-0.4263 0.389-0.4546 0.6786-0.0506 0.5191 0.0255 0.6391 0.879 1.3855 0.5757 0.5034 0.8558 0.6534 1.4375 0.7699 0.3974 0.0796 1.285 0.3075 1.9725 0.5065 0.6875 0.1989 1.6437 0.4206 2.125 0.4928 0.4966 0.0744 1.1793 0.2882 1.5786 0.4943 0.387 0.1998 0.9362 0.4258 1.2204 0.5024 0.2842 0.0765 0.6989 0.295 0.9214 0.4856 0.2225 0.1905 0.584 0.4708 0.8034 0.6229 0.4292 0.2976 1.4717 1.7758 1.6601 2.3541 0.0633 0.1944 0.2448 0.9722 0.4031 1.7285l0.288 1.375v31.5625 31.5625l-0.3478 1.6218c-0.1912 0.892-0.4443 1.7551-0.5625 1.918-0.1181 0.1628-0.3553 0.537-0.5272 0.8315-0.385 0.6595-1.3742 1.5615-2.125 1.9376-0.3094 0.155-0.6857 0.3946-0.8362 0.5324s-0.6286 0.353-1.0625 0.4782c-0.4338 0.1252-1.1263 0.3676-1.5388 0.5388-0.4125 0.1711-1.2281 0.375-1.8125 0.453s-1.5406 0.3029-2.125 0.4997c-0.5844 0.1969-1.3023 0.4208-1.5954 0.4975-0.9309 0.2437-1.8613 1.2702-1.6526 1.8233 0.1555 0.4123 0.9528 1.0349 1.4641 1.1433 1.2048 0.2553 10.0232 0.0104 11.9714-0.3325 2.3406-0.412 10.1987-0.4756 17-0.1376 1.5812 0.0786 3.55 0.1594 4.375 0.1797 16.2174 0.398 26.2058 0.4873 26.6407 0.238 0.3712-0.2129 1.0137-1.2535 1.236-2.0018 0.1026-0.3455 0.3267-0.879 0.4981-1.1856 0.1713-0.3066 0.3683-0.857 0.4378-1.2232 0.0694-0.3661 0.2921-1.0168 0.4949-1.4459 0.2027-0.4291 0.434-1.1652 0.5139-1.6357s0.3042-1.2335 0.4985-1.6955 0.4104-1.2495 0.4802-1.75 0.3009-1.4725 0.5136-2.16c0.4898-1.5829 0.7645-4.3501 0.5146-5.1841-0.1383-0.4617-0.2387-0.562-0.8352-0.8351l-0.6779-0.3104-0.6243 0.3398c-0.4612 0.251-0.6921 0.4799-0.8841 0.8766-0.1429 0.2952-0.3652 0.6707-0.494 0.8345-0.1288 0.1637-0.3722 0.6096-0.5408 0.9909s-0.3744 0.7352-0.4574 0.7865c-0.0829 0.0512-0.3055 0.4381-0.4947 0.8597-0.1891 0.4216-0.4376 0.8443-0.5521 0.9394-0.1145 0.095-0.3193 0.4239-0.4551 0.731-0.1359 0.307-0.3923 0.7355-0.57 0.9522-0.1776 0.2167-0.4455 0.573-0.5953 0.7918-1.3057 1.9071-3.4828 3.9588-4.6894 4.4194-0.3207 0.1224-0.8643 0.3677-1.208 0.5452-0.4507 0.2326-1.3395 0.4503-3.1875 0.7808l-2.5625 0.4582-7.625 0.0488c-8.2709 0.0529-8.3117 0.0505-10.6719-0.6483-1.4898-0.4411-2.3032-0.9932-3.3092-2.246-0.3276-0.4079-0.785-1.7045-1.2371-3.5059-0.1212-0.4831-0.1568-3.8747-0.1568-14.9375 0-16.0987-0.0921-14.6005 0.971-15.7927 0.5264-0.5903 0.5342-0.5937 1.5915-0.7118 1.315-0.1468 14.8803-0.152 16.0105-0.0061 0.7039 0.0908 0.9333 0.19 1.5838 0.6848 0.931 0.708 1.3551 1.1984 1.7412 2.0133 0.1628 0.3437 0.4037 0.7937 0.5352 1 0.1316 0.2063 0.3241 0.7833 0.4278 1.2824s0.3296 1.2304 0.502 1.625c0.1724 0.3947 0.3745 0.9575 0.4492 1.2506 0.0817 0.3203 0.3639 0.7943 0.707 1.1875 0.7848 0.8993 0.8901 0.967 1.5047 0.967 0.6875 0 0.9646-0.2695 1.2356-1.2017 0.1847-0.6352 0.1915-0.9812 0.0635-3.2237-0.3036-5.3204-0.3108-8.8795-0.0247-12.2428 0.1453-1.7082 0.2642-3.6819 0.2642-4.3859v-1.2802l-0.4999-0.6981c-0.5299-0.7399-1.1099-1.0593-1.5931-0.8771-0.1414 0.0534-0.5409 0.3589-0.8877 0.679-0.5061 0.4672-0.6719 0.726-0.8407 1.3125-0.1157 0.4018-0.3125 0.9329-0.4373 1.1803-0.1249 0.2474-0.3129 0.82-0.4178 1.2725-0.105 0.4525-0.4664 1.3364-0.8032 1.9643-0.7859 1.4653-1.6994 2.2948-2.7594 2.5054-0.3841 0.0763-0.8953 0.2022-1.1359 0.2797-0.2986 0.0961-2.8826 0.1547-8.1388 0.1844l-7.7014 0.0437-0.6746-0.2984c-0.5733-0.2536-0.7496-0.4187-1.1737-1.0999l-0.499-0.8015v-14.8125-14.8125l0.3634-0.625c0.5223-0.8982 1.4143-1.789 2.1366-2.1336 0.3437-0.164 0.8219-0.4131 1.0625-0.5534 0.4324-0.2522 0.5603-0.2548 11.0625-0.2207l10.625 0.0344 1.0625 0.4029c0.5844 0.2216 1.1807 0.4041 1.3253 0.4054 0.1445 0.0014 0.4539 0.1409 0.6875 0.31s0.6241 0.4175 0.8677 0.5519c0.6102 0.3366 2.4936 2.2395 2.6985 2.7263 0.0922 0.2191 0.3056 0.6016 0.4743 0.8501 0.1686 0.2485 0.3721 0.7724 0.4522 1.1643 0.08 0.3918 0.306 1.0922 0.5021 1.5564 0.1961 0.4643 0.4197 1.1924 0.4969 1.6182 0.1776 0.9794 0.4829 1.5786 1.0648 2.0895 0.412 0.3618 0.5119 0.3943 0.9761 0.3177 0.7252-0.1195 1.1363-0.3923 1.4604-0.969 0.2591-0.4609 0.2741-0.6027 0.2058-1.9487-0.0404-0.7985-0.1866-2.0423-0.3248-2.7642-0.1381-0.7219-0.3122-1.9031-0.3869-2.625-0.0746-0.7219-0.2994-1.9875-0.4996-2.8125-0.3027-1.248-0.6253-3.3684-0.6253-4.1105 0-0.3254-0.5882-0.8934-1.2711-1.2275-0.8339-0.4079-1.7673-0.4397-6.5414-0.2226-5.0943 0.2316-10.2544 0.3005-22.5625 0.3014-10.9103 8e-4 -12.2909-0.0218-18.125-0.2964-3.4953-0.1646-7.5297-0.2204-8.2609-0.1144zm-419.0611 9.3336c-1.1697 0.4448-1.4496 0.6446-2.059 1.4696-0.7766 1.0511-0.8988 1.4355-0.8493 2.6717 0.0415 1.0367 0.0611 1.0976 0.6292 1.9509 0.4411 0.6624 0.8091 1.0343 1.4845 1.5l0.8981 0.6192 25.328 0.0357c13.9304 0.0196 25.5055 4e-3 25.7225-0.0347 0.5452-0.0973 1.7512-0.9414 2.2691-1.5883 0.6497-0.8114 0.8068-1.2843 0.8224-2.4752 0.0121-0.9193-0.0316-1.1552-0.3246-1.75-0.535-1.0863-1.3898-1.8896-2.5046-2.3537l-0.9519-0.3963-24.79 0.0073-24.7899 0.0073-0.8845 0.3365zm2.2595 17.6421c-0.7373 0.3768-1.707 1.1453-2.0071 1.5906-0.1447 0.2147-0.371 0.7196-0.503 1.122-0.2353 0.7178-0.2399 2.0017-0.2399 67.4192v66.6875l0.2989 0.7837c0.3843 1.0078 1.0326 1.7355 2.1441 2.4071 0.8235 0.4976 0.9557 0.5378 1.7933 0.5451 0.7936 7e-3 1.0088-0.0452 1.7587-0.4265 1.0087-0.5128 1.3542-0.8363 1.9425-1.8189l0.4375-0.7308 0.0354-67.0048c0.0194-36.8527 0.0044-67.1793-0.0334-67.3924s-0.3268-0.7907-0.6421-1.2836c-0.4604-0.7196-0.7492-1.0117-1.4666-1.4835-0.8635-0.5679-0.9288-0.5889-1.9558-0.6289-0.8782-0.0341-1.1492 3e-3 -1.5625 0.2142zm22.375-0.0756c-0.7316 0.3311-1.7926 1.0803-2.1585 1.5243-0.2041 0.2476-0.5332 0.8528-0.7313 1.3449l-0.3602 0.8947v66.503 66.503l0.4569 0.9375c0.5664 1.1623 1.1658 1.8002 2.2934 2.4407 0.8411 0.4777 0.918 0.4968 2.0023 0.4968 1.1016 0 1.1482-0.0122 2.0145-0.5268 1.3425-0.7976 1.8579-1.4635 2.2228-2.8718 0.1789-0.6904 0.1976-7.0211 0.1976-66.9584v-66.196l-0.2955-0.9306c-0.362-1.1399-1.0456-1.9877-2.2045-2.7341-0.7807-0.5029-0.8565-0.5248-1.9375-0.5601-0.7522-0.0246-1.2493 0.0194-1.5 0.1329zm21.578 0.2992c-1.2094 0.6416-1.8245 1.2651-2.3758 2.4082l-0.4522 0.9375v66.5625 66.5625l0.4112 0.8519c0.5278 1.0936 1.1896 1.8041 2.3109 2.4812l0.8974 0.5419h1.2548 1.2549l0.9674-0.6031c1.0944-0.6823 1.4038-1.0359 1.9906-2.2751l0.4128-0.8718v-66.5625-66.5625l-0.4528-0.9375c-0.4977-1.0304-1.2216-1.8015-2.3564-2.5102-0.6252-0.3905-0.7815-0.4309-1.8128-0.4696-1.1072-0.0414-1.146-0.033-2.05 0.4466zm267.6538 92.5032c-0.5202 0.0853-0.6889 0.4534-0.8655 1.8882-0.2066 1.6784-0.2656 1.9303-0.6188 2.6418-0.1535 0.3094-0.3204 0.7594-0.3708 1-0.0505 0.2406-0.2824 0.8279-0.5154 1.305-0.443 0.9069-0.5267 1.4171-0.2738 1.67 0.4251 0.4251 1.3772-0.1447 2.1625-1.2943 0.4891-0.716 1.371-1.6548 1.8806-2.0017 0.1405-0.0958 0.8077-0.2877 1.4825-0.4265 1.015-0.2089 1.7063-0.2525 4.0027-0.2525 3.7698 0 4.7349 0.1946 5.0853 1.0254 0.2608 0.6181 0.259 28.7103-0.0018 29.3287-0.0968 0.2295-0.5665 0.7455-1.0462 1.1493-0.7954 0.6695-0.9677 0.7556-1.9946 0.9967-1.5163 0.356-2.4449 0.7176-2.6034 1.0138-0.129 0.2409-0.0585 0.7229 0.1096 0.7497 0.0469 0.0076 3.7323 0.0216 8.1897 0.0313 6.1501 0.0134 8.1343-0.0184 8.2283-0.1318 0.0682-0.0821 0.1056-0.279 0.0831-0.4375-0.0545-0.3847-1.0794-0.8809-2.4064-1.165-0.5552-0.1189-1.15-0.2905-1.3219-0.3812-0.6027-0.3183-1.7442-1.3057-1.9342-1.6729-0.37-0.7157-0.4365-2.6919-0.4331-12.8815 0.0035-10.5207 0.12-16.0631 0.3498-16.6511 0.0772-0.1975 0.356-0.4581 0.6687-0.625 0.522-0.2787 0.6431-0.2874 4.5324-0.3243 4.9724-0.0471 5.9903 0.083 6.9221 0.885 0.7436 0.64 0.703 0.5709 1.1534 1.9654 0.5388 1.6684 1.0878 2.1656 1.5731 1.4249 0.1533-0.2339 0.237-0.7334 0.2985-1.7812 0.0596-1.0157 0.1687-1.6831 0.3605-2.2062 0.1937-0.5281 0.2966-1.1649 0.3478-2.1525 0.0841-1.6207 0.017-1.785-0.7289-1.785-0.3765 0-0.5905 0.0959-0.9608 0.4304-0.3297 0.2979-0.7628 0.5124-1.4066 0.6969-0.5116 0.1466-1.2115 0.3499-1.5552 0.4517-0.5312 0.1574-2.3987 0.1875-12.4375 0.2001l-11.8125 0.0148-0.9118-0.3239c-1.1538-0.4098-1.6694-0.8042-2.1118-1.6155-0.3555-0.652-0.6319-0.8395-1.1196-0.7595zm179.9935 0.0926c-0.3599 0.2521-0.6221 1.0964-0.8534 2.7481-0.1351 0.9653-0.3002 1.5965-0.5556 2.125-0.1998 0.4135-0.4043 0.9205-0.4544 1.1268s-0.2218 0.6563-0.3815 1c-0.1598 0.3437-0.291 0.7234-0.2917 0.8437-0.0017 0.3035 0.4434 0.7188 0.7702 0.7188 0.3249 0 1.2124-0.8917 1.7385-1.7468 0.3187-0.5179 1.3127-1.4924 1.8416-1.8055 0.0902-0.0534 0.6753-0.2041 1.3002-0.3349 2.0244-0.4237 8.0123-0.29 8.6738 0.1938 0.1146 0.0838 0.2958 0.5131 0.4026 0.9541 0.1678 0.6925 0.2008 2.6169 0.2421 14.1143 0.0569 15.8171 0.1277 15.0162-1.4299 16.1595-0.7054 0.5178-0.9937 0.6393-2.1723 0.9157-1.8222 0.4273-2.6969 1.0245-2.2115 1.5099 0.1983 0.1982 0.828 0.2158 8.1854 0.2283 4.7411 8e-3 8.0339-0.0336 8.1269-0.1028 0.2279-0.1695 0.1909-0.6404-0.0688-0.8754-0.286-0.2589-1.0617-0.5345-2.3646-0.8401-1.1979-0.281-2.1869-0.9433-2.9104-1.9493l-0.4375-0.6083v-14.1875c0-11.8173 0.029-14.2562 0.1734-14.5985 0.1096-0.2598 0.3856-0.5358 0.75-0.75l0.5766-0.339 3.875-0.0415c5.1884-0.0555 6.3171 0.1117 7.1968 1.066 0.521 0.5653 0.8814 1.273 1.1161 2.1919 0.223 0.8732 0.3881 1.2086 0.6333 1.2864 0.6273 0.199 1.1154-0.6903 1.1178-2.0366 8e-4 -0.4627 0.0863-1.1506 0.1899-1.5287s0.2742-1.4058 0.3791-2.2837c0.2332-1.9507 0.1517-2.2553-0.6198-2.3186-0.4113-0.0338-0.5538 0.0261-0.9367 0.394-0.4413 0.4241-0.5494 0.4666-2.889 1.137-0.7241 0.2074-14.722 0.3514-20.75 0.2134l-4.1875-0.0959-0.8125-0.3809c-0.8139-0.3816-1.3591-0.9132-1.7886-1.7439-0.2929-0.5666-0.6995-0.6909-1.1736-0.3588zm-101.4632 0.1006c-0.1712 0.1252-0.2658 0.5111-0.406 1.6547-0.1191 0.9725-0.293 1.7531-0.4997 2.2431-0.1743 0.4133-0.3896 1.0328-0.4783 1.3765-0.0888 0.3437-0.3368 0.9541-0.551 1.3564-0.4041 0.7587-0.4986 1.4221-0.2396 1.6811 0.437 0.437 1.2552-0.1162 2.3512-1.5898 0.5897-0.7927 1.4146-1.5798 1.9363-1.8472 0.1375-0.0704 0.7605-0.2254 1.3845-0.3443 0.9482-0.1808 1.6562-0.2073 4.3125-0.1614 4.4728 0.0771 4.5829 0.1295 4.7618 2.265 0.0601 0.7173 0.094 7.2298 0.0752 14.4722-0.0389 15.0468 0.1038 13.4414-1.3072 14.7148-0.8114 0.7323-0.8882 0.7709-2.054 1.0312-2.027 0.4526-2.9782 1.0781-2.5055 1.6476 0.0939 0.1131 2.1002 0.1482 8.2671 0.1446 7.0044-0.0041 8.1593-0.0303 8.2587-0.1875 0.3995-0.6316-0.3345-1.0878-2.6094-1.6219-1.0246-0.2406-1.2051-0.33-1.9805-0.9807-0.977-0.8198-1.101-1.0272-1.2822-2.1438-0.1681-1.0361-0.1747-24.3984-0.0075-26.6841 0.1383-1.8921 0.257-2.1372 1.1967-2.47 0.5482-0.1942 1.0749-0.2132 4.8648-0.1759 5.1596 0.0508 5.5252 0.1094 6.45 1.0342 0.5195 0.5195 0.657 0.762 0.879 1.5502 0.4704 1.6699 0.8802 2.1947 1.4681 1.88 0.3128-0.1674 0.5154-1.0907 0.5154-2.3487 0-0.6964 0.0857-1.2014 0.3181-1.8748 0.3753-1.0872 0.56-3.1868 0.3199-3.6354-0.241-0.4504-0.992-0.3765-1.6351 0.1608-0.2864 0.2393-0.7558 0.4952-1.0431 0.5688-0.2873 0.0735-0.8598 0.2517-1.2723 0.396-0.7129 0.2493-1.1115 0.2676-8.0625 0.3712-4.0525 0.0604-9.5416 0.0618-12.3125 0.0033-4.773-0.1008-5.0331-0.1186-5.729-0.3903-0.8538-0.3335-1.5535-0.9067-1.7861-1.4634-0.0909-0.2177-0.2553-0.4858-0.3653-0.5957-0.2415-0.2415-0.9247-0.2619-1.2325-0.0368zm-106.1148 1.346c-2.1607 0.1887-3.8387 0.5213-4.411 0.8746-0.2138 0.1319-0.623 0.3226-0.9094 0.4236-0.6683 0.2358-1.3255 0.7515-2.6112 2.0487-0.8952 0.9033-1.1181 1.2215-1.6582 2.3664-0.5302 1.1239-0.6445 1.5025-0.7609 2.5189-0.0755 0.6589-0.1038 1.8697-0.0631 2.6961 0.0729 1.4803 0.0815 1.5147 0.6554 2.625 0.7643 1.4788 2.07 2.9859 3.2591 3.7618 0.3564 0.2325 0.6838 0.4808 0.7276 0.5516 0.0438 0.0709 0.3428 0.2623 0.6645 0.4255 0.3217 0.1631 0.6974 0.4224 0.8349 0.5763 0.1375 0.1538 0.475 0.3869 0.75 0.5179 0.5301 0.2525 1.5026 0.8899 2.125 1.3929 0.2063 0.1667 0.6598 0.4468 1.0079 0.6225 0.348 0.1757 0.7099 0.4124 0.8041 0.5259s0.3719 0.3162 0.6171 0.4505c1.0044 0.5498 2.0567 1.5672 3.0553 2.9539 0.4034 0.5603 0.4961 0.8197 0.6472 1.8125 0.2217 1.4562 0.2216 2.8813-2e-4 4.1253-0.2105 1.1805-0.7923 2.1805-1.8814 3.2334-0.6541 0.6324-0.9099 0.782-2 1.17-1.1061 0.3936-1.3892 0.4447-2.4593 0.4437-1.0506-1e-3 -1.3322-0.0504-2.1458-0.3762-0.5151-0.2062-0.9941-0.375-1.0644-0.375-0.1453 0-1.0964-0.7717-1.8103-1.4689-0.7066-0.69-1.5819-1.8738-1.7681-2.3911-0.0896-0.2489-0.3376-0.7816-0.5512-1.1839s-0.3884-0.8826-0.3884-1.0673c0-0.4912-0.5107-1.4204-0.8977-1.6335-0.2507-0.138-0.4241-0.1533-0.6875-0.0608-0.6097 0.2142-0.6683 0.6585-0.4892 3.7085 0.1423 2.4227 0.1859 2.7332 0.4427 3.1486 0.3143 0.5086 1.92 1.9484 2.1729 1.9484 0.0879 0 0.4381 0.1787 0.7781 0.3971 0.5798 0.3724 1.5357 0.6528 3.8057 1.1164 1.7747 0.3624 5.9585-0.2236 7.75-1.0855 1.6227-0.7807 2.1818-1.1542 3.1669-2.1155 0.6688-0.6527 1.9581-2.4924 1.9581-2.794 0-0.096 0.2109-0.6316 0.4688-1.1903l0.4687-1.0157v-2.5625-2.5625l-0.5386-1.125c-0.2962-0.6187-0.5775-1.1862-0.625-1.261-0.8569-1.349-2.6913-3.1653-3.8364-3.7986-0.275-0.1521-0.6406-0.4056-0.8125-0.5635-0.1719-0.1578-0.5413-0.4015-0.8209-0.5415-0.2796-0.1401-0.584-0.3458-0.6764-0.4572-0.0925-0.1113-0.4684-0.3445-0.8354-0.5182-0.367-0.1736-0.6673-0.3669-0.6673-0.4295s-0.2953-0.2628-0.6562-0.4449c-0.361-0.1821-0.8411-0.4924-1.0669-0.6896s-0.4872-0.3585-0.5809-0.3585c-0.4399 0-3.6056-2.9418-3.9682-3.6875-0.1337-0.275-0.352-0.6969-0.4852-0.9375-0.2003-0.3619-0.2422-0.6872-0.2424-1.8816-2e-4 -1.4314 0.0042-1.4533 0.5042-2.4872 0.5815-1.2024 0.8597-1.5623 1.7988-2.3273 0.586-0.4774 0.8571-0.5966 1.9694-0.8661 0.7319-0.1773 1.6606-0.3125 2.1468-0.3126 1.1933-3e-4 2.7834 0.4948 3.3468 1.042 0.2334 0.2266 0.5081 0.4646 0.6103 0.5287 0.3346 0.2097 1.2564 1.4152 1.4983 1.9593 0.1302 0.2928 0.3735 0.7168 0.5407 0.9422s0.3749 0.6629 0.4615 0.9721c0.3682 1.3153 2.011 1.7342 2.61 0.6655 0.1672-0.2984 0.1489-0.4703-0.2068-1.9375-0.2147-0.8855-0.4262-1.8991-0.4701-2.2525-0.1025-0.8254-0.8583-2.1529-1.3734-2.4122-0.2058-0.1036-0.5892-0.32-0.852-0.4808-0.5361-0.3282-1.6434-0.5673-3.5847-0.7739-0.7219-0.0768-1.3969-0.1566-1.5-0.1774s-0.6837 0.0056-1.2902 0.0585zm-68.3741 0.548c-0.3283 0.3282-0.2515 0.6816 0.2581 1.1887 0.3434 0.3418 0.6525 0.5086 1.1562 0.6239 0.3781 0.0866 0.8954 0.2974 1.1494 0.4686 0.2541 0.1711 0.7004 0.3933 0.9919 0.4937s0.709 0.334 0.9278 0.519c0.2189 0.185 0.608 0.4981 0.8648 0.6958 0.3253 0.2503 0.6242 0.6864 0.9853 1.4375l0.5183 1.0781-0.0173 5.3125c-0.0115 3.5618-0.0825 6.1364-0.2153 7.8125-0.109 1.375-0.2841 4.0188-0.3892 5.875-0.3198 5.65-0.3472 5.8716-0.8739 7.0722-0.6519 1.4861-1.2166 2.0214-2.6447 2.5069-1.4274 0.4853-1.6721 0.6457-1.6721 1.096 0 0.1962 0.0703 0.4106 0.1562 0.4763 0.0952 0.0728 2.6161 0.1152 6.4426 0.1083 5.4309-0.0098 6.3024-0.0368 6.4044-0.198 0.4138-0.6546-0.2152-1.058-2.7048-1.7343-0.2827-0.0768-0.6638-0.2894-0.8469-0.4724-0.6216-0.6217-1.3099-1.7839-1.3959-2.3571-0.0459-0.3066-0.0629-5.5307-0.0377-11.609 0.0442-10.6472 0.0546-11.0612 0.2834-11.314 0.2544-0.2811 0.6973-0.3389 1.0698-0.1395 0.1946 0.1042 1.2967 1.3888 2.5039 2.9186 0.1719 0.2178 1.1281 1.3323 2.125 2.4766s2.0938 2.4294 2.4375 2.8558c0.3437 0.4263 0.8702 1.065 1.1699 1.4194 0.2997 0.3543 0.7497 0.8876 1 1.1851 0.6564 0.7801 1.1699 1.3806 1.7288 2.0216 0.2697 0.3094 0.8524 1.0125 1.2948 1.5625 0.4425 0.55 1.3832 1.675 2.0906 2.5 2.4706 2.8815 3.0474 3.5683 3.7784 4.4995 0.3094 0.394 0.9844 1.2112 1.5 1.8159s1.275 1.506 1.6875 2.003c0.8337 1.0044 2.5958 2.6191 2.8582 2.6191 0.093 0 0.487 0.1697 0.8756 0.377 0.8638 0.461 1.2205 0.4062 1.6578-0.2547 0.3754-0.5673 0.3913-0.8268 0.1832-2.9973-0.1245-1.2989-0.1517-4.8969-0.1183-15.625l0.0435-13.9375 0.3321-0.625c0.6181-1.1633 1.5009-1.7492 2.9305-1.9451 1.145-0.1569 1.4793-0.3359 1.7715-0.9487 0.209-0.4383 0.2078-0.4474-0.0986-0.6973-0.2997-0.2444-0.4127-0.2501-3.248-0.1626-1.6156 0.0499-4.265 0.1274-5.8875 0.1722-3.1424 0.0868-3.3625 0.1335-3.3625 0.7127 0 0.1599 0.1417 0.3996 0.3184 0.5386 0.323 0.254 0.5431 0.3176 1.5637 0.4512 1.1745 0.1538 3.0979 1.7178 3.3867 2.754 0.1007 0.3614 0.1157 3.6873 0.0539 12-0.095 12.7659-0.0423 12.0625-0.9025 12.0625-0.5099 0-0.8146-0.2798-2.0417-1.875-0.3967-0.5156-1.0368-1.3031-1.4226-1.75-1.4348-1.6623-2.3422-2.7471-3.0809-3.6836-0.3094-0.3922-0.7875-0.9947-1.0625-1.339-0.4917-0.6155-2.0147-2.4111-2.7495-3.2416-0.206-0.2328-0.5154-0.6241-0.6875-0.8695-0.4355-0.6208-0.981-1.2831-2.5023-3.0379-0.7229-0.8337-1.3979-1.6364-1.5-1.7837-0.1724-0.2487-1.0282-1.3202-2.4662-3.088-0.327-0.4019-0.9634-1.1613-1.4142-1.6875s-0.9534-1.1536-1.1168-1.3942c-0.3574-0.5264-0.7012-0.9504-2.0062-2.4741-0.5471-0.6388-0.9948-1.211-0.9948-1.2716 0-0.0605-0.3027-0.3686-0.6727-0.6847l-0.6727-0.5747-4.7416-0.0742c-4.3403-0.0679-4.7595-0.0564-4.9523 0.1365zm-29.0837 0.1635c-0.3063 0.2506-0.3076 0.2597-0.0986 0.698 0.288 0.6041 0.6268 0.7921 1.6879 0.9369 1.4155 0.193 2.599 0.9859 3.2501 2.1773 0.207 0.3787 0.2233 1.2675 0.2561 13.904 0.0233 8.9774-0.0084 13.7019-0.0945 14.1037-0.1686 0.7858-0.6958 1.5385-1.5272 2.1798-0.5604 0.4324-0.8835 0.5664-2.0043 0.8312-1.7 0.4017-2.1855 0.6077-2.3661 1.0039-0.1183 0.2597-0.1083 0.3591 0.054 0.5385 0.1863 0.2058 0.7126 0.2195 8.1483 0.2114 7.3189-0.0079 7.966-0.0255 8.1623-0.2218 0.4872-0.4873-0.3907-1.0793-2.2548-1.5205-0.9778-0.2315-1.5352-0.4344-1.8402-0.67-0.2406-0.1858-0.5857-0.4318-0.7669-0.5465-0.2138-0.1353-0.4659-0.5367-0.7187-1.1439l-0.3894-0.9353 0.0028-13.3525 0.0029-13.3524 0.4034-0.9879c0.3086-0.7558 0.4915-1.0356 0.7784-1.1907 0.2063-0.1114 0.6281-0.3516 0.9375-0.5337 0.356-0.2095 0.9693-0.4003 1.6706-0.5198 1.2849-0.2189 1.7044-0.5018 1.7044-1.1494 0-0.7049-0.0694-0.7175-3.3413-0.6089-3.6117 0.1199-4.3814 0.1193-8.2837-0.0065-2.9693-0.0958-3.0719-0.0911-3.373 0.1551zm171.6345 0.0178c-0.4975 0.4975 0.1585 1.3063 1.2261 1.5116 1.4721 0.2832 1.7343 0.3751 2.4694 0.866 0.6887 0.4599 0.7923 0.5898 1.15 1.4418l0.393 0.9364-7e-3 26.8182-0.3629 0.8125c-0.6397 1.4322-1.3956 1.9832-3.3492 2.4413-0.7683 0.1801-1.5817 0.4518-1.8076 0.6037-0.4262 0.2864-0.5953 0.758-0.3572 0.9961 0.1743 0.1743 15.8681 0.2169 16.1027 0.0437 0.2396-0.177 0.1858-0.6725-0.1022-0.9408-0.2631-0.2451-1.1907-0.5476-2.5716-0.8385-0.965-0.2033-2.0509-0.9951-2.6712-1.9478l-0.4363-0.6702v-13.9375-13.9375l0.472-0.7179c0.2772-0.4215 0.6642-0.8234 0.9375-0.9736 0.256-0.1406 0.635-0.3634 0.8423-0.4951 0.2072-0.1317 0.7978-0.3045 1.3125-0.384 1.0514-0.1624 1.5174-0.3611 1.8031-0.769 0.2507-0.3579 0.2474-0.6527-0.01-0.9101-0.1835-0.1836-0.5091-0.196-3.0938-0.1182-3.534 0.1063-4.7917 0.106-8.6612-0.0023-2.9369-0.0821-3.0299-0.0773-3.2784 0.1712zm78.6768 0.0553c-0.4109 0.627 0.0141 1.2423 1.046 1.5146 0.7733 0.204 1.3065 0.5247 1.9158 1.1525 0.9635 0.9925 0.9007 0.209 0.9792 12.2266 0.0633 9.6836 0.0916 10.8182 0.2849 11.4375 0.118 0.3781 0.329 1.1186 0.4688 1.6454 0.2782 1.0478 1.2124 3.0081 1.8045 3.7865 0.6301 0.8283 2.4703 2.5739 3 2.8457 0.275 0.1411 0.659 0.3895 0.8534 0.552 0.1943 0.1625 0.5037 0.3302 0.6875 0.3726 0.1837 0.0425 0.756 0.2638 1.2716 0.4919 1.2122 0.5363 4.0765 0.9732 6.4375 0.9819 2.1671 8e-3 4.8548-0.4231 5.75-0.9223 0.3437-0.1917 0.9137-0.442 1.2665-0.5563 0.3529-0.1142 0.7465-0.3237 0.8748-0.4654 0.1282-0.1417 0.395-0.3413 0.5928-0.4436 0.8932-0.4619 2.9404-2.4544 3.6374-3.5402 0.1551-0.2417 0.3719-0.514 0.4818-0.6052s0.3105-0.4619 0.4459-0.8238c0.1354-0.3618 0.3892-0.8686 0.564-1.1261 0.1747-0.2576 0.3513-0.6735 0.3924-0.9244s0.2449-0.9906 0.4528-1.6437c0.4685-1.4719 0.592-3.0238 0.6018-7.5625 0.0084-3.9017 0.2007-9.8147 0.3816-11.733 0.072-0.7635 0.2651-1.9169 0.4292-2.5631 0.251-0.9884 0.3741-1.253 0.7762-1.6684 0.5798-0.599 0.9292-0.79 1.6653-0.9105 1.2739-0.2085 2.0049-1.0398 1.4245-1.6201-0.1768-0.1769-0.4823-0.1893-2.5937-0.1059-1.3163 0.0519-2.9277 0.0873-3.5808 0.0786-3.3175-0.0444-4.4365-0.0374-4.6453 0.0288-0.126 0.04-0.2647 0.2145-0.3082 0.3878-0.1083 0.4315 0.2896 0.9366 0.9044 1.1479 1.1084 0.3811 1.2348 0.4785 1.7571 1.354 0.2839 0.476 0.5777 1.0879 0.653 1.3597 0.2343 0.8468 0.6423 10.3712 0.6399 14.942-0.0013 2.6753-0.5062 6.5962-0.9841 7.643-0.1969 0.4313-0.4487 1.0977-0.5595 1.4809-0.1108 0.3833-0.3102 0.7951-0.443 0.9153s-0.313 0.3973-0.4003 0.6158c-0.2633 0.6581-2.1988 2.7668-2.6759 2.9153-0.1378 0.0429-0.4787 0.2408-0.7574 0.4398-0.4491 0.3206-0.9244 0.4795-2.8682 0.9584-1.33 0.3277-2.3675 0.3906-3.625 0.2196-1.8853-0.2562-4.0216-0.8435-4.7432-1.304-0.34-0.2169-0.6834-0.3944-0.763-0.3944s-0.3069-0.1547-0.5051-0.3438c-0.1982-0.189-0.4815-0.4281-0.6296-0.5312-0.7828-0.5451-2.3028-2.5755-2.6009-3.4742-0.1207-0.364-0.3504-0.8984-0.5104-1.1875-0.208-0.376-0.3529-0.9887-0.5084-2.1508-0.1839-1.3746-0.2255-2.9821-0.2699-10.4311-0.0471-7.8809-0.0303-8.9298 0.1593-9.983 0.2018-1.1203 0.2424-1.2108 0.8448-1.8814 0.7713-0.8585 0.7501-0.8438 1.5468-1.078 0.6244-0.1835 1.2947-0.7576 1.2902-1.1048-0.0079-0.6046-0.5278-0.7031-3.3311-0.6315-2.9593 0.0757-2.2336 0.0774-5.8168-0.0135l-2.9622-0.0752-0.1997 0.3048zm102.3117-0.0438c-0.345 0.345-0.3194 0.4601 0.2229 1.0023 0.406 0.4061 0.5784 0.4851 1.2188 0.559 1.0496 0.121 1.6279 0.2838 1.8166 0.5112 0.0894 0.1077 0.3771 0.3053 0.6395 0.4391 0.3773 0.1925 0.5619 0.4192 0.8833 1.0846l0.4064 0.8413v13.625 13.625l-0.36 0.8379c-0.5099 1.1866-1.7655 2.1967-2.7585 2.2191-0.134 3e-3 -0.7081 0.1472-1.2759 0.3204-1.2857 0.3921-1.7145 0.8708-1.2217 1.3637 0.2424 0.2423 2.1894 0.2654 5.0749 0.06 1.0539-0.075 2.1975-0.1348 2.5412-0.133 1.6679 0.0088 8.0213 0.1124 12.5249 0.2042 5.7676 0.1175 5.5138 0.1586 5.8422-0.9472 0.1042-0.351 0.3295-0.9277 0.5006-1.2816s0.3718-1.0373 0.4459-1.5185 0.2736-1.2803 0.4434-1.7757 0.3427-1.1486 0.3843-1.4515c0.0659-0.4814 0.0386-0.5764-0.217-0.7555-0.1608-0.1126-0.4129-0.2048-0.5603-0.2048-0.3452 0-0.888 0.4278-0.9954 0.7845-0.1987 0.6598-1.3094 2.3432-2.0912 3.1694-0.7587 0.8018-0.9488 0.931-1.8125 1.2323-1.8395 0.6417-2.4264 0.7056-6.0899 0.6629l-3.375-0.0393-0.7852-0.4087c-0.6289-0.3273-0.8779-0.5511-1.25-1.1237l-0.4648-0.7149-0.0346-6.4231c-0.0388-7.2103-0.0797-6.8757 0.878-7.1653 0.7213-0.2181 6.4409-0.2202 7.1689-0.0027 0.433 0.1293 0.5857 0.274 0.9861 0.9346 0.2606 0.4298 0.5942 1.2021 0.7413 1.7162 0.2048 0.7154 0.3421 0.9766 0.5851 1.113 0.4116 0.2311 0.9648 0.095 1.0976-0.2699 0.0556-0.1528 0.0501-1.1778-0.0121-2.2778-0.0754-1.3301-0.0671-2.6725 0.0245-4.008 0.1393-2.0307 0.1158-2.3161-0.2232-2.7107-0.2191-0.2552-0.9317-0.2932-1.1251-0.0602-0.0725 0.0873-0.2263 0.5352-0.3419 0.9955-0.2563 1.0205-1.1105 2.2529-1.7051 2.4602-0.6266 0.2184-7.0248 0.1821-7.4589-0.0424-0.6393-0.3306-0.6431-0.3725-0.6431-7.0922v-6.2586l0.5312-0.4932c0.9745-0.9048 0.7192-0.8685 5.8174-0.8274l4.5889 0.037 0.833 0.4743c1.2179 0.6935 1.8934 1.5642 2.1668 2.7928 0.2445 1.0993 0.5849 1.5454 1.1791 1.5454 0.6488 0 0.8026-0.4008 0.6318-1.6465-0.1241-0.9047-0.5376-2.9396-0.8871-4.3649-0.222-0.9056 0.2553-0.8602-7.5486-0.7177-5.0108 0.0915-7.4807 0.0889-8.6917-9e-3 -0.9304-0.0753-3.1101-0.1369-4.8437-0.1369-2.9854 0-3.1653 0.0132-3.4021 0.25z" fill="#5B0F1A" fill-rule="evenodd"/></svg>
